 <svg className="position-absolute top-0 start-0 zindex-2" 
                    viewBox="0 0 80 80" xmlns="http://www.w3.org/2000/svg" 
                    fill="none">
                    <path d="M24.233 52.279l1.671 2.898c.347.61.847 1.09 1.434 1.439l5.993-4.249.011-6.1-5.98-2.694-5.99 2.673c-.001.675.172 1.35.519 1.96l2.343 4.074z" fill="#06d"/><path d="M40.392 34.091l.313-7.946-6.279-2.424c-.588.347-1.09.825-1.439 1.434l-11.09 19.133c-.349.609-.525 1.283-.526 1.958l11.97.021 7.052-12.175z" fill="#00ad3c"/><path d="M40.392 34.091l5.752-3.094.251-7.254c-.587-.349-1.261-.525-1.958-.526l-8.053-.014c-.696-.001-1.371.193-1.96.519l5.967 10.37z" fill="#00831e"/><path d="M47.401 46.292l-14.059-.025-6.004 10.349c.587.349 1.261.525 1.958.526l22.112.039c.697.001 1.371-.193 1.96-.519l.023-6.951-5.99-3.419z" fill="#0084ff"/><path d="M53.367 56.662c.588-.347 1.09-.825 1.439-1.434l.699-1.196 3.34-5.761c.349-.609.525-1.283.526-1.958l-6.919-3.641-5.03 3.619 5.945 10.37z" fill="#ff4131"/><path d="M53.341 34.768l-5.511-9.586c-.347-.61-.847-1.09-1.434-1.439l-6.004 10.349 7.008 12.2 11.949.021c.001-.675-.172-1.35-.519-1.96l-5.489-9.586z" fill="#ffba00"/></svg>