<svg className="position-absolute top-0 start-0 zindex-2" 
                    viewBox="0 0 92 92" xmlns="http://www.w3.org/2000/svg">
                    <g clip-path="url(#D)">
                    <path d="M65.381 38.179c-.097-2.129-.435-3.583-.93-4.855a9.8 9.8 0 0 0-2.307-3.543c-.999-1.017-2.208-1.805-3.542-2.308-1.272-.494-2.726-.832-4.855-.929l-8.246-.121-8.246.12c-2.129.097-3.582.435-4.855.93a9.8 9.8 0 0 0-3.542 2.307c-1.017.999-1.805 2.208-2.307 3.542-.494 1.272-.832 2.726-.929 4.855l-.121 8.246.121 8.246c.097 2.129.435 3.582.93 4.855a9.8 9.8 0 0 0 2.307 3.542 9.8 9.8 0 0 0 3.543 2.307c1.272.495 2.726.833 4.855.93l8.246.12 8.246-.12c2.129-.097 3.582-.435 4.855-.93 2.686-1.039 4.81-3.163 5.849-5.849.495-1.272.832-2.726.93-4.855l.12-8.246-.12-8.246zm-3.6 16.328c-.089 1.95-.415 3.009-.688 3.714-.673 1.744-2.051 3.123-3.796 3.796-.705.274-1.764.6-3.714.688l-8.082.117c-5.341 0-5.973-.02-8.082-.117-1.95-.089-3.009-.415-3.714-.688a6.2 6.2 0 0 1-2.3-1.496c-.664-.645-1.175-1.431-1.496-2.3-.274-.705-.6-1.764-.688-3.714l-.117-8.082.117-8.082c.089-1.95.415-3.009.688-3.714a6.2 6.2 0 0 1 1.496-2.3c.645-.664 1.431-1.176 2.3-1.496.705-.274 1.764-.6 3.714-.689l8.082-.116h0l8.082.117c1.95.089 3.009.415 3.714.689a6.2 6.2 0 0 1 2.299 1.496 6.19 6.19 0 0 1 1.496 2.3c.274.705.6 1.764.689 3.714l.117 8.082-.117 8.082z" fill="url(#A)"/><path d="M45.501 36.155c-5.672 0-10.27 4.598-10.27 10.27s4.598 10.27 10.27 10.27 10.27-4.598 10.27-10.27-4.598-10.27-10.27-10.27zm0 16.937a6.67 6.67 0 0 1-6.666-6.667 6.67 6.67 0 0 1 6.667-6.666 6.67 6.67 0 0 1 6.666 6.666 6.67 6.67 0 0 1-6.667 6.667z" fill="url(#B)"/><path d="M58.577 35.749a2.4 2.4 0 0 1-4.8 0 2.4 2.4 0 1 1 4.8 0z" fill="url(#C)"/></g><defs><linearGradient id="A" x1="28.858" y1="63.068" x2="62.144" y2="29.782" gradientUnits="userSpaceOnUse"><stop stop-color="#ffd600"/><stop offset=".5" stop-color="#ff0100"/><stop offset="1" stop-color="#d800b9"/></linearGradient><linearGradient id="B" x1="38.239" y1="53.687" x2="52.763" y2="39.163" gradientUnits="userSpaceOnUse"><stop stop-color="#ff6400"/><stop offset=".5" stop-color="#ff0100"/><stop offset="1" stop-color="#fd0056"/></linearGradient><linearGradient id="C" x1="54.48" y1="37.446" x2="57.874" y2="34.052" gradientUnits="userSpaceOnUse"><stop stop-color="#f30072"/><stop offset="1" stop-color="#e50097"/></linearGradient><clipPath id="D"><path fill="#fff" transform="translate(25.501 26.425)" d="M0 0h40v40H0z"/></clipPath></defs></svg>