<svg className="position-absolute top-0 start-0 zindex-2" 
                    viewBox="0 0 92 92" 
                    xmlns="http://www.w3.org/2000/svg">
                    <path d="M34.921 50.845a4.211 4.211 0 1 1-4.21-4.211h4.211v4.211zm2.105 0a4.211 4.211 0 1 1 8.421 0v10.526a4.211 4.211 0 0 1-8.421 0V50.845z" fill="#ff185b"/><path d="M41.236 34.003a4.211 4.211 0 1 1 4.211-4.21v4.211h-4.211zm0 2.105a4.211 4.211 0 1 1 0 8.421H30.71a4.211 4.211 0 1 1 0-8.421h10.526z" fill="#00c5f1"/><path d="M58.079 40.319a4.211 4.211 0 1 1 4.21 4.211h-4.211v-4.211zm-2.106 0a4.211 4.211 0 1 1-8.421 0V29.793a4.211 4.211 0 1 1 8.421 0v10.526z" fill="#00b67b"/><path d="M51.763 57.161a4.21 4.21 0 1 1-4.211 4.211v-4.211h4.211zm0-2.105a4.211 4.211 0 1 1 0-8.421h10.526a4.211 4.211 0 1 1 0 8.421H51.763z" fill="#ffb20f"/></svg>