
    <svg className="position-absolute top-0 start-0 zindex-2" viewBox="0 0 82 81" 
                  fill="#5865f2" xmlns="http://www.w3.org/2000/svg">
                  <path d="M55.3042 27.7464C52.7547 26.5766 50.0208 25.7147 47.1623 25.2211C47.1103 25.2115 47.0582 25.2354 47.0314 25.2829C46.6798 25.9083 46.2903 26.7241 46.0176 27.3654C42.9431 26.905 39.8844 26.905 36.873 27.3654C36.6002 26.7099 36.1966 25.9083 35.8434 25.2829C35.8166 25.2369 35.7645 25.2131 35.7125 25.2211C32.8556 25.7131 30.1217 26.575 27.5706 27.7464C27.5485 27.7559 27.5296 27.7718 27.5171 27.7924C22.3314 35.5397 20.9108 43.0965 21.6077 50.5597C21.6108 50.5961 21.6313 50.6311 21.6597 50.6533C25.081 53.1659 28.3953 54.6912 31.6478 55.7023C31.6999 55.7182 31.755 55.6992 31.7881 55.6563C32.5575 54.6056 33.2434 53.4977 33.8314 52.3326C33.8661 52.2644 33.833 52.1834 33.762 52.1565C32.6742 51.7438 31.6383 51.2406 30.6418 50.6693C30.563 50.6233 30.5567 50.5105 30.6292 50.4565C30.8389 50.2994 31.0487 50.1359 31.2489 49.9708C31.2852 49.9407 31.3356 49.9343 31.3782 49.9533C37.9245 52.9422 45.0116 52.9422 51.4806 49.9533C51.5231 49.9327 51.5736 49.9391 51.6114 49.9692C51.8117 50.1343 52.0214 50.2993 52.2327 50.4565C52.3052 50.5104 52.3004 50.6232 52.2217 50.6692C51.2252 51.2517 50.1893 51.7437 49.0999 52.1548C49.0289 52.1818 48.9974 52.2643 49.0321 52.3325C49.6328 53.496 50.3187 54.6039 51.0738 55.6547C51.1054 55.6991 51.1621 55.7182 51.2142 55.7022C54.4825 54.6912 57.7967 53.1658 61.2181 50.6532C61.2481 50.6311 61.267 50.5977 61.2701 50.5612C62.1042 41.933 59.8731 34.4381 55.356 27.794C55.3451 27.7718 55.3262 27.7559 55.3042 27.7464ZM34.8092 46.0154C32.8383 46.0154 31.2143 44.206 31.2143 41.9838C31.2143 39.7617 32.8067 37.9522 34.8092 37.9522C36.8272 37.9522 38.4355 39.7775 38.4039 41.9838C38.4039 44.206 36.8114 46.0154 34.8092 46.0154ZM48.1003 46.0154C46.1296 46.0154 44.5056 44.206 44.5056 41.9838C44.5056 39.7617 46.098 37.9522 48.1003 37.9522C50.1185 37.9522 51.7267 39.7775 51.6952 41.9838C51.6952 44.206 50.1185 46.0154 48.1003 46.0154Z"/></svg>