<svg className="position-absolute top-0 start-0 zindex-2" 
                   viewBox="0 0 61 62" fill="none" 
                    xmlns="http://www.w3.org/2000/svg">
                <path d="M38.7451 44.777H22.1996C21.1496 44.777 20.2905 43.9179 20.2905 42.8679V18.6861C20.2905 17.6361 21.1496 16.777 22.1996 16.777H33.6542L40.6542 23.777V42.8679C40.6542 43.9179 39.7951 44.777 38.7451 44.777Z" fill="#00ad3c"/><path d="M33.6543 16.777L40.6543 23.777H33.6543V16.777Z" fill="#00831e"/><path d="M24.1089 27.7543V36.6634H36.8361V27.7543H24.1089ZM29.6771 35.0724H25.6999V33.0043H29.6771V35.0724ZM29.6771 31.4134H25.6999V29.3452H29.6771V31.4134ZM35.2453 35.0724H31.268V33.0043H35.2453V35.0724ZM35.2453 31.4134H31.268V29.3452H35.2453V31.4134Z" fill="#fbffff"/></svg>