<svg className="position-absolute top-0 start-0 zindex-2" viewBox="0 0 102 102" fill="none" xmlns="http://www.w3.org/2000/svg"><path d="M33.1883 66.9909H39.8702V50.7636L35.4948 43.1234L30.3247 43.6045V64.1273C30.3247 65.7094 31.6062 66.9909 33.1883 66.9909Z" fill="#0085f7"/><path d="M62.7793 66.9909H69.4612C71.0433 66.9909 72.3248 65.7094 72.3248 64.1273V43.6045L67.1621 43.1234L62.7794 50.7636V66.9909H62.7793Z" fill="#00a94b"/><path d="M62.7794 38.3545L58.8545 45.8442L62.7794 50.7636L72.3249 43.6045V39.7863C72.3249 36.2473 68.2848 34.2261 65.4522 36.35L62.7794 38.3545Z" fill="#ffbc00"/><path fill-rule="evenodd" clip-rule="evenodd" d="M39.8704 50.7636L36.1304 42.8632L39.8704 38.3545L51.3249 46.9454L62.7795 38.3545V50.7636L51.3249 59.3545L39.8704 50.7636Z" fill="#ff4131"/><path d="M30.3247 39.7863V43.6045L39.8702 50.7636V38.3545L37.1974 36.35C34.3648 34.2261 30.3247 36.2473 30.3247 39.7863Z" fill="#e51c19"/></svg>