<svg className="position-absolute top-0 start-0 zindex-2" 
                    viewBox="0 0 62 62" fill="#03a9f4" 
                    xmlns="http://www.w3.org/2000/svg">
                    <path d="M44.73 22.4611C43.6887 22.9178 42.5792 23.2206 41.4225 23.3676C42.6125 22.6571 43.5207 21.5406 43.9477 20.1948C42.8382 20.8563 41.6132 21.3236 40.3077 21.5843C39.2542 20.4626 37.7527 19.7678 36.1147 19.7678C32.9367 19.7678 30.3782 22.3473 30.3782 25.5096C30.3782 25.9646 30.4167 26.4021 30.5112 26.8186C25.739 26.5858 21.5162 24.2986 18.6795 20.8143C18.1842 21.6736 17.8937 22.6571 17.8937 23.7158C17.8937 25.7038 18.9175 27.4661 20.4435 28.4863C19.5212 28.4688 18.6165 28.2011 17.85 27.7793C17.85 27.7968 17.85 27.8196 17.85 27.8423C17.85 30.6318 19.8397 32.9488 22.449 33.4826C21.9817 33.6103 21.4725 33.6716 20.944 33.6716C20.5765 33.6716 20.2055 33.6506 19.8572 33.5736C20.601 35.8468 22.7115 37.5181 25.221 37.5723C23.268 39.1001 20.7882 40.0206 18.1037 40.0206C17.633 40.0206 17.1815 39.9996 16.73 39.9418C19.2727 41.5816 22.2862 42.5178 25.536 42.5178C36.099 42.5178 41.874 33.7678 41.874 26.1833C41.874 25.9296 41.8652 25.6846 41.853 25.4413C42.9922 24.6328 43.9495 23.6231 44.73 22.4611Z"/></svg>